<mxfile host="app.diagrams.net" modified="2024-04-01T16:16:03.602Z" agent="Mozilla/5.0 (Windows NT 10.0; Win64; x64) AppleWebKit/537.36 (KHTML, like Gecko) Chrome/123.0.0.0 Safari/537.36" etag="lTX3Uo8qd8LNmqta9PYe" version="24.0.7" type="device">
  <diagram name="Page-1" id="7StXvR4TmeytSHn6089n">
    <mxGraphModel dx="1323" dy="713" grid="1" gridSize="10" guides="1" tooltips="1" connect="1" arrows="1" fold="1" page="1" pageScale="1" pageWidth="827" pageHeight="1169" math="0" shadow="0">
      <root>
        <mxCell id="0" />
        <mxCell id="1" parent="0" />
        <mxCell id="I_HEO3aWKhT4bS8Z9P9y-26" value="" style="rounded=1;whiteSpace=wrap;html=1;gradientColor=none;fillColor=none;dashed=1;strokeWidth=2;" vertex="1" parent="1">
          <mxGeometry x="460" y="220" width="240" height="380" as="geometry" />
        </mxCell>
        <mxCell id="I_HEO3aWKhT4bS8Z9P9y-13" value="" style="rounded=1;whiteSpace=wrap;html=1;" vertex="1" parent="1">
          <mxGeometry x="150" y="300" width="270" height="290" as="geometry" />
        </mxCell>
        <mxCell id="I_HEO3aWKhT4bS8Z9P9y-17" value="" style="rounded=1;whiteSpace=wrap;html=1;gradientColor=none;fillColor=none;dashed=1;strokeWidth=2;" vertex="1" parent="1">
          <mxGeometry x="130" y="464" width="310" height="146" as="geometry" />
        </mxCell>
        <mxCell id="I_HEO3aWKhT4bS8Z9P9y-3" value="" style="group" vertex="1" connectable="0" parent="1">
          <mxGeometry x="150" y="90" width="190" height="120" as="geometry" />
        </mxCell>
        <mxCell id="I_HEO3aWKhT4bS8Z9P9y-1" value="" style="shape=image;verticalLabelPosition=bottom;labelBackgroundColor=default;verticalAlign=top;aspect=fixed;imageAspect=0;image=https://github.githubassets.com/assets/GitHub-Mark-ea2971cee799.png;" vertex="1" parent="I_HEO3aWKhT4bS8Z9P9y-3">
          <mxGeometry x="90" y="20" width="100" height="100" as="geometry" />
        </mxCell>
        <mxCell id="I_HEO3aWKhT4bS8Z9P9y-2" value="" style="shape=image;verticalLabelPosition=bottom;labelBackgroundColor=default;verticalAlign=top;aspect=fixed;imageAspect=0;image=https://images.datacamp.com/image/upload/v1647430873/kaggle_logo_icon_168474_4eb653edb6.png;" vertex="1" parent="I_HEO3aWKhT4bS8Z9P9y-3">
          <mxGeometry width="132" height="66" as="geometry" />
        </mxCell>
        <mxCell id="I_HEO3aWKhT4bS8Z9P9y-10" style="edgeStyle=orthogonalEdgeStyle;rounded=0;orthogonalLoop=1;jettySize=auto;html=1;entryX=0.25;entryY=0;entryDx=0;entryDy=0;" edge="1" parent="1" source="I_HEO3aWKhT4bS8Z9P9y-6" target="I_HEO3aWKhT4bS8Z9P9y-8">
          <mxGeometry relative="1" as="geometry">
            <Array as="points">
              <mxPoint x="201" y="368" />
            </Array>
          </mxGeometry>
        </mxCell>
        <mxCell id="I_HEO3aWKhT4bS8Z9P9y-12" style="edgeStyle=orthogonalEdgeStyle;rounded=0;orthogonalLoop=1;jettySize=auto;html=1;entryX=0.25;entryY=0;entryDx=0;entryDy=0;" edge="1" parent="1" source="I_HEO3aWKhT4bS8Z9P9y-6" target="I_HEO3aWKhT4bS8Z9P9y-9">
          <mxGeometry relative="1" as="geometry" />
        </mxCell>
        <mxCell id="I_HEO3aWKhT4bS8Z9P9y-6" value="" style="shape=image;verticalLabelPosition=bottom;labelBackgroundColor=default;verticalAlign=top;aspect=fixed;imageAspect=0;image=data:image/jpeg,/9j/4AAQSkZJRgABAQAAAQABAAD/2wCEAAkGBw8PDQ0NDQ0NDQ0NDQ0ODQ4ODQ8NDQ4NFREWFhURFRMYHyggGBolGxMVIT0iJSkrLi8wFyszODMsNygtLjcBCgoKDg0OFQ8PFSsZFR0rLSsrKysrLSsrKy0rKysrKysrLS0tKy0rKysrKystLSsrKy0rKystKysrKy0rKystK//AABEIAOAA4AMBEQACEQEDEQH/xAAbAAEBAQEAAwEAAAAAAAAAAAAAAQcGAgQFA//EAD4QAQACAQICAwsKBQUBAAAAAAABAgMEEQUhBgcxEiI0UVRhc3SBotETFkFCcZGxsrPwFDVyocEyM1Ji8SX/xAAaAQEBAAMBAQAAAAAAAAAAAAAAAQIEBQMG/8QAKREBAAICAAUCBwEBAQAAAAAAAAERAgMEBRIhMTJBExQiUVJhcTMjNP/aAAwDAQACEQMRAD8A+A+yUAAAAAABVAAQ3ETcBS1AEFoCEFLABiKtgWCWFJYsIiooI8GyAAAAKKIACoIKKUlhSAC0BRYtIBIIBYqCoEAqWCABSIA8G0AAAqgIAACWiigKgILRYAArECwpLFosKSwBQGMopYFgkyCWNduChAigAgCooCIKADIBASQLAsViKAgAIioLAADEUCmMyLSWrWb4IACAAkigAtFi0kyCWAACWLCCgiDIESxUtFBaYm4ACsRS0GMiou7UdABRBQEAkViCisRQAKLFosKQEkEsUtBJkWksAAWEmRZSxYgsWmMyhTGwosWktWm6FqpIUgAFi0xmRYgsUsQBBUsVAEUUSUKQEsUFYirYiWbrEMZlFSxYLGSSDECwR5NSnRAAFYgASKgAUWLTGwpLFASwLQSRUsVLAsZQkpuIFAyiGMglilgkyiwxFBB5tSnRsCwLFQEAFSZBLCgEFS0Xwp+/39x2j+sTco7m5ePukzIsVHhjEizFpabrUFiRlj92MzIvVjPulyMo7+CxSwSZTcSxUBBUAebUdIECgEABLFQAVEVBAmTylu96u+i2LUUyanV4oyY5n5PDjt/pnb/Vf74iI+yfM4PM+LmMoxwmnthjbtfmdw3yHD73xcr5jb+UvTpg+ZvDfIsPvfFPmNv5SdMM36x+G4NLrMePT4q4qWwVtNa77Tburc/7PoeUbMs8ZnKba+2ocq7H6eEuu6veC4dRnmdRSuXHal4rS0TtO23fONzTdlhhEYzU29teN+Wh/M7hvkWH3vi4HzW78pbHRB8zuG+RYfe+KxxW78pOnH7M56x+F4NLq8WPTYaYaW08XtFN+d+7tG/3RH3O/wAn257Mcuqbau6IiXJO3TXsEsUABAAHm1HRsGNiwWACItClJaLRYiTIySwot7HDtDk1ObHgwxE5Mk7V3naseeZ8XbPsePEb8dOuZlcYuW+cL0NNPhx4McbUxVisefaO37ZfG55znlMy2YinuMFAZJ1s+H4vVq/nu+j5LH0ZNXe43BhnJaKV7bcvHtH0y7OeUY43Lx8tO6FY4pqaUrvtXFeOfOfofOcxmcsb/bY1+XfOM2BEZP1t+Haf1WP1LvpOR+nNqcR5hwzvtaQQAAAAB5tV0AQUBDcoJkRFQAWkCkF8pLR+qng/+7rrxHPfDh3jnt9e338vZL53m/EdWXw49nvqhpEQ4r2UElJGS9bPh+L1av57vpuR/wCeTV3vkdG9LtW2afp72n9P0z9/4NzidlzTzxh23Q/wuPR3/wAONx8/84j9vbX5d247YERk/W54dp/VY/Uu+k5F6c2pxHmHDO+1pBAAAAAHm1W8gKqWioALSBQLSWKiFdmMy9vhOhtqdRh09OVst4r3W2/cV+tbb6do5/8ArX4vbGrTOS6+8t90GkphxY8OOO5pjpWlY80Rtv8Aa+MzynOZynzLdiKh7LCFFEkGVdZ+CcnEtPSO22npz8Ud3befY+h5Rl06smtu7vzx4q1rFaxEVrG0RH0e175TcvOX3uiHhkejv+Dn8f6Ieuvy7uHHbAiMn62/DcHqsfqXfS8i9ObU4jzDhneasgAAACKA8t3g3LEBlEIIC0xsWixYhJkWkREsWWLTeqvgfc0tr8m++SJx4K7bRGPfvsm/nmNvsjzvmeb8V1ZRrx8Q2tWFd2h1jlDjvdQASQ93BdNNPH8dXLy3/hqVjl2d/aZdjl2X0S1tnl8ZvzDzfa6H+F19HkaHH/5x/Xpr8u8hx2yIjJ+tvw3B6rH6l30vIvTm1OI8w4Z3mrIAAAigAryeDaBLGRYJMi0xtFSxYBUsYpM9nucI4dfVajFp8cc8lo3t/wAaRztb2Q8OK3xp1zlLLXj1N80OmpixY8WONqY6VpWN9+9iPH9L4nLKc85ylv49oexux9yHzNTxatNZptJtvfPTLknnHeUpHbMdvOZ5f0z4npjhM4zl7Jfd9RgqSDiOmvhNPQ1/NZ2OW+iWvt82590Hk+r0S1ERxDHj7bXxZLT/ANaxHb7f8S0uPx/5X+2eufqaFu4baFGT9bfhuD1WP1Lvo+R+nNp8R5hwzvtUFAEKBaApQV5U2LCmIohSSMoY2KWBYJJ++XatVkkx2ah1V8H7jFl1t6x3WfamL6dsUTzn2z+XzvlubcROezoj2benDs0Bx7bD8s+WtK2veYrSsTa1pnaIiI33mTHG5pJmoZh0W4rOs6QfxE7xW1M0Yqz9XFFdq+3bn7Xd4vho08HjHvbV153m1SHCbZIOI6beE09DX81nY5b6Ja+5z1rRETM8oiN5+yHRiO7xfl1eaicvGPlJ7Jw5e5iduVYjlH78bz5ph08PE/tdM/U118zPhuiksn62/DcHqsfqXfR8j9ObT4jzDhnfa9CIACgqpa0BQwpmEQSKlhSWLBYySZBjaA9/gXDLavVYdNTl3do7u3ixRztP27btXjd/wtMz7vTDG5b3pNPXHSuOlYpjpWtaVjsrWI2iHxE5TlMzLoY9ofvMpY4PrT418lgro6THd6nnk/64az/meXsl1+UcN8XZ1T4hr78+1OU6s/5ri9Hm/K6nOP8Az19peOjy2eHyreJQcR018Jp6Kv5rOxy70S8Nrh+kWq7mkYq9t+dufZTxbefb+ztcNh1TctbOXudV8/8A1K+hy/hDX51/jH9ZaPU2N8pPhvEMhk/W34bg9Vj9S76PkfpzanEeYcM7zWoQUUCgWAtRFCgIhBUBEEsUsGJ+/GV2tWp9V3A/ksNtbfnfUx3OOP8Ajhie37Zn+0Q+U5txfxNnTHiG7pxp3zkth+Gr1FMVL5MlorSlbWvaZ2iKxHOVwxmZiI8plMRDBePcVvrNTk1GSZ76ZileyKY4nva7PtuC0Ro1YxHn3c7Zl1ZS+11Z/wA1xejzflafO+2mP69NHls8Pk7bxIOH6dZIrnra07RXDEzPmi0uzy2LxmGvullmr1E5clsk8pnsjxV5REf2h9Lqx6cahpTNun6r/wCZ19Dl/CHK5x/hH9e2j1NjfKz4b6wyGT9bfh2n9Vj9S76LkfpzanEeYcM77wpUQAGVCSCAqisZkEtFLBLBiKAPZ4fhx5M2KmbLGHFa8RkyT9Sn1pjz7NfjNueOE9EXLKGzYOlfC6UrSutwxWtYrWO+5ViNojsfG5cPuym5wlv454x7v0+ePDfLsPvfBj8ruu4xll8TH7uT6weluHLp66bR5Yy/K2ic16bxFcdZ3iu/jmfwdTlnBZfF69kVDw3bImO0s4iH1Fdphpw6HoJrsWn4hjzZ8lceOMeSJvbsiZryhyuba8s9UVFvbRl9XdqXzw4b5bh974Pmfltv4S3evE+ePDfLcPvfA+W3e2MnXj93BdYvHcOoyY66XLXLWaRGS1d5isxNpiJ+3eJ9nndzlHD544z1xTW3TEuJd5rU6Tq/1+HT6+MuoyVxY/kskTa2+287bQ5PNteWWn6Yvu9tMxGXdp/zx4b5bh974Pmp4bbXpluTnj9yemPDfLsPvfAnht34yZZYs56yOKYNVq8OTTZa5qU0/cWtXfaLd3adufmmPvfQcn0568cuqKa+6YmnJu08BLULKC1AEWhCkejysEAFAQAAAQCo8AV2oFWBJ7+SOwlKFQBEV4J7mwKWUFeyiTESolUUKsCKAC0AuxaiDxezXEAAAAAAAABFAAAUUARkACiAAixAKCqFCSUMbZRAWtPF7tQAAAAAAAFoQoFiAKApUWgWIBaEsoChCgWgtVSZUSJWBbKEmVoSyhJllEKi08Gy0gAAABQSVEBVEkVFBQAUQgLUQABRBRRJWhF8BaiWypUKEZRAMoh4NpzgAABFBaBAF2RlQFAtAAsDFaAABV2JUSyhLKC2VCTLKIXZChjMrQlsqC1EWIBk8G45gigAoAKqLAAFAsCKCCLArIS0C1pRRiCTLKIC1pWNlCWsQFsqEWgtlQkrAigPBuOZQAKCqALQi0BQigACKAIqgIyEsEWIVGUQDISVoRRLUQBQAUB4NxzQFRlEAUACiTKiWAtEhQFKAiwJbKgsoS2VKxtaCZWhjaxAWtCWyoS1AoFoAAAB4ttz6AAEZACRILKwICKpMglgWtBaxAxZUuxZEDG2UQDISQRlECStCAqgAAAAAP/Z;" vertex="1" parent="1">
          <mxGeometry x="236.5" y="320" width="97" height="97" as="geometry" />
        </mxCell>
        <mxCell id="I_HEO3aWKhT4bS8Z9P9y-11" style="edgeStyle=orthogonalEdgeStyle;rounded=0;orthogonalLoop=1;jettySize=auto;html=1;entryX=0.25;entryY=1;entryDx=0;entryDy=0;" edge="1" parent="1" source="I_HEO3aWKhT4bS8Z9P9y-8" target="I_HEO3aWKhT4bS8Z9P9y-6">
          <mxGeometry relative="1" as="geometry" />
        </mxCell>
        <mxCell id="I_HEO3aWKhT4bS8Z9P9y-8" value="" style="shape=image;verticalLabelPosition=bottom;labelBackgroundColor=default;verticalAlign=top;aspect=fixed;imageAspect=0;image=data:image/png,iVBORw0KGgoAAAANSUhEUgAAAOEAAADhCAMAAAAJbSJIAAAAwFBMVEX///9EhvdEhvlEhvhEhfVFhfNEhfRDh/xAe99Dh/tEhvZAe95DhvpGg+tFhfJAe91FhO46g/2Ttf6Vs/E+f+k0fvbK2fzR3vctc+LJ1/Uvc95MivU4eeE4ddiTrufu8/74+v8se/g4fvC+0f6lwf2Zuf0wfv1zovxSj/y0y/05gvtqnfuGrfzf6f7D1f2hvvxflfl4o/d+ounc5v7m7f5plekib+KxxvJbjedVj/WEpupNhOOdt+xbi+Kqw/ZvmOM7EgtqAAAId0lEQVR4nO2deVviOhSHK/sozrhQltJe0rKobIKiDONc5/t/q5sC9RYobZJz0qTz9H3m7zGvJ81Jfl00jJycnJycnJycnJzM89ofDO9kMhz0X9Xp9R9Go1v5jEaTvhK/4e3otpoO9CcNSdp+T6npBZJPqfqRyShVP5/RhKQn2PuWbgF33H7rpSaowm/rmJIiGSsSpJBUDBfqDMeLNAQHquaoz+1AvmAv/VU0zEj+pfig8CqkjB9kC7bUlpAWsSXZ8FGxYLX6KFfwSeUys+NW6vaNqBekikSi4d34m3rGd/IEVyPVdltGK2mGEx1KSIs4kSXYdFW77XGbkgwvq6rV9lQv5QgOblWbfSFne0p0maM+LpFgONVjmdkxnuILzvToFAGjGbqhwnNvFPhn4bmr2ukId45sWK3rRhVX8HmsWuiE8TOmYM9V7ROBixloLPUrIS3iEk/wVccS0iLi3Xd71G+d8cELNPp6lpAWEeu+oo4X4Y4xjuBQY8MhhqCWnSIApWM8VAv6UkWIwFuuaotYXHgE/lhXLRFLHdwxnkzVDgmYwAicjPUuIS3imIAM78aqDRKBReArvZeZHS4kAp/oPkd96oAIvJmFEtIiikfgl1koIS2icAQ+0L1TBJiCEThxi1nBJUKG07HqgTMjFoHPslNCWkSRCHxRVz1sDuoCEfg8SyWkReSPwOsF1YPmolDnFXw2VY+ZE5MzAu9la476cAYayywtMzvqXBF4K3slpEXkicA3hYvsUdiwC/ZN1aMVwmSPwOtF1YMVosgcgQ/HqscqCGsE3svmHPUx2TrGQ131QIWpM0XgzeyWkBaxw2DYzeYys6PYTRb8zHIJaRE/kwSJmeUS0iKaJMHwLrvLzI56QgS+ci+zTkIEPimqHiCYYmwE3jRVjw8BMy4Cv7xQPTwELmIi8MHfUEJaxLMROPk7BKkiOWM4hXWKookHsGOcicBfXZhgud/E4qkI23ecCTQWsOiC8eTCxgxWxUJkBA6MLlj2vBxYsCJGBhpeCQauod0oXUBG453+l8+mXoZUEcJpBN6DCkINe62D/aQNVjxeFpbQSQozJG/v7feP0E1AG6roHUXgLRcqCDP8sHyl9/9/7zZY8eiZvm5RqeG6vTWyXw4NQYqHi/sT+CqEGb7Ye44MQYoHz/SBL0JZhiDFUMcYqjY8N0thit5XBL6CLzNAQ+PajlppoIpfgcakoNyQ/KTdwg7tl20MxcI+0GiaFQSgHX/VOTgPhAxrDeFB7QONTUkHwyPsMMKKpe1N0w5KCaUaiitu72Msi/obCisWl344gyJIf12YJ+BVG0nRJEjrTMUvYqeFxbxmHyOoSKfpwEMyrJS8NhbWiaCoojcwpjiX4VaxHDEwPIQUi1NjgdIrAsXT2aVYsbQwuniCWlaxa1TKmFS+12TSKPMP1+iiGpbLshV56RoL3CLqplhZGNMSsqFeiqUp7YdYZhVvf1sF3hctG0uR9sOOiSXYbWLuaZAU6Z6GYBki70uRJqp/K3GJcyFWkM8WONdiyc+FkaYptiGOormNhTcoRUzVkFVxd8ZHKiLUcHac08QaMioGjyo+lL7DKYMMez/bVrsWztriBSkMYyoFj5uuTOWGu+4QzksTDRkUza8bdkNPseHa2o45nHknGyYqeqHHvr2yWsOXQIjLMEGxHL7TvYYXUYVhvKK3Dv+ITUWpYTBLf3EaxilWDl+haYEXG9hK8+Eb2W2ulSZB0Tz6rssS2jFghuTt3Wp/hJ5VYDU8q1g6fpWtBy0izPD0WQxWw3OKpweBZ+BiAzU8gt0wWtGLeKUUutYoM4xUrET8n3NgEdUZRih6ka92L2Bt30N9NtHiMTxRLEe/nv8KXGxu1h0s1lx+p4rmmRdmp7B5WvYsNHgNDxW9c5/JIOC2zz0wPMLDOP9m0Cd4e6qFohfzdtcN+IyhgWL5+3lBowk/C6tXjH1nxpiAzxjKFSvxn/5auWBD1YpJn2+7Qwg0aleKBK+oopf0CT6CYKi0ih5JMEToGEoVrcT3gA1jg2CoTNH+SBY0OhjpqSrFNtMnaR/gHUOVov2HRRAeaKhTbDOe4O4xFhsVitY/bIKGgWOYvqLFKmj0s6lorZPVAlA6Bj31+7ub1P7VWDpFwKt5g0PtKj0sro+XL0uZUwzdmmOh5yEZpqdocWZ9g6wp2r/5BA2DrhNZUgzdemRljlbEVBQtgS9e/0QrYgqKtX/5BY0ZVsdIQ7Et9Kf0ppXMKIZuj/NA8K5E2YoWETI0PjEVr37Iw2aILqK5RjSUqHj1Q1TQ6GAWUZ6ixfIpwTO84XUMeYq1N3FBY4XYMaQptkF/pvuuob2izRxdRILaMaQoCneKgLXuijzRRTQbXENsRa7oIpoWchGRFfmii2iWuIvNzQ2moMMWcseDF2hIUOSNLqK5xy4inqLDHV1Eg26IpujgCBp99HmKpAjvFAELdEMUxSuR6CKaV/wiYihaeH/T2XjBvxThig5fyB0PfsdAUMTpFAF4ETiaIn/IHY8EQaAif8gdT9O7lgBAEBJdRPOzoZciXqcImEkporCiBYouovklpYiCio5YyB0PkVNEMUVodBHNpz6KeBvSQ65vdFGERxfRdCQVkVsRv1MEvMlZbHgVUaKLaFZtSYZ8irgb0kPuZRWRR9GBhdzxyOoYXIoOkWhorNUryuoUARtp85RVUVanCGhJW2wYFTFC7niW8orIoiixUwT05F2JLIoyO0WArO0pkyJWyB2PnLMwk6KDf+6NgjTUKZJUDOmlqEjRSeEi3Cteq1B0fqQmaPh/0iR1ResPSVHQvx+Vbl90HMmbtQieG/JWnBM95zdJXZAyX3peQw5OCMv5E/kdj3SYzT/vpfDPnt+fc6HHf3NycnJycnJycnL04j9Xtggjw1mGpgAAAABJRU5ErkJggg==;" vertex="1" parent="1">
          <mxGeometry x="180" y="490" width="85" height="85" as="geometry" />
        </mxCell>
        <mxCell id="I_HEO3aWKhT4bS8Z9P9y-22" style="edgeStyle=orthogonalEdgeStyle;rounded=0;orthogonalLoop=1;jettySize=auto;html=1;entryX=0;entryY=0.5;entryDx=0;entryDy=0;" edge="1" parent="1" source="I_HEO3aWKhT4bS8Z9P9y-9" target="I_HEO3aWKhT4bS8Z9P9y-23">
          <mxGeometry relative="1" as="geometry">
            <mxPoint x="530" y="531.56" as="targetPoint" />
          </mxGeometry>
        </mxCell>
        <mxCell id="I_HEO3aWKhT4bS8Z9P9y-9" value="" style="shape=image;verticalLabelPosition=bottom;labelBackgroundColor=default;verticalAlign=top;aspect=fixed;imageAspect=0;image=data:image/jpeg,/9j/4AAQSkZJRgABAQAAAQABAAD/2wCEAAkGBw4ODw8OEA0PEA8NEA0PDw8QDg8PDw8PFxgXGRUYFRUYHSggGBoxGxUVITIiJSkrLi4uGCszODMtNygtLisBCgoKDg0OGxAQGi0lICYuKzEtLS0vLS0tKy0tLSstKy0tLS0tLS0tLS0rLS0rKy0tLS0rLS0tLS0tLS0tLS0tLf/AABEIANMA7gMBIgACEQEDEQH/xAAbAAEAAgMBAQAAAAAAAAAAAAAAAQcDBQYCBP/EAD4QAAICAAIHBAcHAgYDAQAAAAECAAMEEQUGEiExQVFhcYGRBxMiMkKhwRQjNFJzsbJiglNykqLR8MLh8ST/xAAaAQEAAgMBAAAAAAAAAAAAAAAABAUBAgMG/8QANBEAAgECAgYJBAICAwAAAAAAAAECAwQRMRITIUGx8AVRYXGBkaHB0SIyNOEUQ1LxFSMz/9oADAMBAAIRAxEAPwC8YiIAiIgCIiAYcTiEqRrLGCogzZjwAle6b1zutJTDk017wGy+8Ydc/h8N/bMmvumPWW/ZUb2KTnZkfes6eH7905Keg6P6PioKpUWLeSe5fLzKu6upaWhB4Iy3Ymxzm9juerOzH5zHtHqfOREt0sCATtHqfONo9T5yImQTtHqfONo9T5yIgE7R6nzjaPU+ciIBO0ep842j1PnIiATtHqfONo9T5yIgE7R6nzn1YXSOIpOdd9iZdHOXlwM+SJhpPMym1kd7q5rj6xlpxOyrNuS4blJ5BxyPbw7p2ko6WVqTpj7RT6l2ztoyGZO96/hPfyPh1lD0lYRpx1tNYLevcsrS5cnoTz3P2OniIlMWAiIgCIiAIiIAiIgCafWXSoweHawZesb2Kh1c8+4DM+E3EqnW3S32rEEqfuqc0q6H8zeJ+QEm2Ntr6u37Vtfx48MSPc1dXDZm8uezjgaVmJJJJJJJJO8k9TIkSZ6opRERAEREyBEiIBMSIgExIiATESIBMREAT7dDaRbCX13L8JyZfzIfeH/eYnxSJrKKksHkzKbTxRdmGvW1FsQ5q6qynqDvEzThvR/pf3sG54ZvVn/uX6+c7meQuaDoVHB+Hatxe0aqqQUkIiJwOgiIgCIiAIiYcRetaM7nJUUsx6AcYBzuvGl/s9HqUOVuIBXcd61/EfoPHpK1n3aa0g2Lve9viOSL+Wse6PL5z4Z6yyt1QpKO/N9/6yKSvV1k8d24RESWcBERAEREAREQBERAEREAREQBERAEREAy4a96nSxDk9bBlPaPpLe0NpBcVRXevxj2h+VxuYecpydRqLpj1N/qHP3WIIC9Fs5Hx4eUrekrbW09JZx4b0S7SroT0Xk+JZURE80W4iIgCIiAJw3pB0vwwaHjsvdl04qv18p1WmNIJhaHub4R7K/mc+6B4yocTe9rtY5zexizHqTLXoq205615LLv/XwQr2rox0Fm+H7MUSYnoiqIiTEAiJMQCIkxAIiTPVNTudlEZz0VSx8hHaDxE2S6AxrcMJd41sv7zxboXFpvbC3AdfVOR5gTTWQxw0l5o30JdT8n8HwRPRGRIO4jiDuIkTc0IiTEAiJMQCIkxAIiTEYgtXVTS/2vDgsfva8ks7TybxHzzm8lSar6WODxCuT90/sWj+k8D4Hf59ZbKsCAQcwd4I4ETy1/bamrs+17V7rw4YFza1dZDbmuee3E9RESCSRETR61aW+yYdip+9szSrqDzbwG/wApvTpyqTUI5s1nJRi5Pccjr3pf1132dD93hydro1nM+HDznMQTE9fRpRpQUI5LnEoqk3OTkxEROhoIiIAiIgCfTo7R92JcV1IXbnyCjqx5CZND6Lsxdy0197seCJzJ/wCJauidF1YSsVVLkOLMfedurGQL2+VusFtk93u+fQlW9s6u15Gh0RqTRWA159c+47IzWsHu4t4+U6jD0JWoVEVFHAKoUeQmv01pzD4Nc7X9oj2K132P3DkO07pw2ktfMXYSKVSlORy9ZZ4k7vlKeNK5vHpN7Ot7F4L4RPc6NBYL0zLOiUvbp/GsczjLvC1lHkN0yYfWXH1nNcXaex29YPJs53fRM8PuXrz6HP8AnR6n6fJbGO0bRiBlbUj9pHtDubiJx2m9RyoL4Vi2W80ufa/tbn3HzmLRGv7ghcVUCP8AEq3MO9Dx8Mu6dzgsZVegtqdXRuDKc/A9D2TjjdWT7POL58GdMKNwu3yZTFiMpKspVlJBUjIg9CJEtDWnVxMYhdAFxCD2W4CwD4W+h5SsLa2RijAqykqyncQRxBl5aXcLiOK2Peud3aVteg6TweW5kRESUcBERAEREASxNQ9L+upOHc/eYcDZz+KrgPLh3ZSu59Oi8e+GurvTjWcyPzL8S+Ika7t1XpOG/d387DtQq6ueO7f3F0RPnwmJS6tLUOaWKGU9hn0TyTWDwZeHliACScgN5PQSptaNLnGYhnB+6rzSof0j4vHj5Tr9fNL+ppGHQ5WYgb8uK1c/PLLzlcS96Kt8Frpb8u7e/HLzK29q4vVrx553HqJ5iXOJXnqJ5iMQeonmIxB6ieZudUcCL8ZSpGa1k2v3LvH+7ZE0nNQi5PJbTaMXJqK3ne6p6IGEw6gj720B7TzB5L4A+ecnWfTq4Gna3Nc+a1J1PNj2D/1N5Ka1n0mcXirLc/YU+rqHIVrw8zmfGectaTuq7nUyzfsudyLatNUaajHuXya/F4qy52tscu7nNmP/AHcOyYoieiSw2FW9oidFoLVK3G0+vS6tBtMuTBicx3TXae0Q+BuFLurkor5qCBkSRlv7pyjcU5TcE9q3GzpSUdJrYa6bTQGm7cFbtoc0bL1lRPsuPo3QzVxN5wU04yWKMJtPFF4YHGV4ipLa22ksGYP0PQ8pxnpD0QF2cYg4kJcAP9L/AEPhPn9G2lCtj4Rj7NgNlY6OPeHiN/8AbO60hhVvptpb3bUZD2ZjcfrPPPGyudmXFPnzRabLil2+5TEmYSCjFGGRUlWHQjcZlE9MmU5MTzEziYPUTzEYg9RPMRiDtfR/pfZY4Nzubaeknk3Fl8ePgZ30o+m1kZXRirIQysOIYcDLe0JpJcVQlwyBO51Pw2DiPr3Gef6VttCWtWTz7/3xLSyq6S0Huy7v0VnrPijbjL3J3K7Vr2Knsj9s/GayfXpqopisQp4rbZ/Iz45eU0lBJZYIrp/c8esmJETc1JiREAmJEQCZ2Xo0qztxD/kStR/cSf8AxnGTtvRm+/FLzIoP88/3Eh9IfjT8OKJFr/7R8eDOq1gxBqwmJsHFarNk9GIIHzIlLS5Na0LYHFAcqmbwXef2lNyH0Vhq5d/sd737l3e56WtjvCsR2AmQykbiCO8ZS0vR1+BH6tv7ict6SPxo/Rq/d5Ip3enXlSwyx249XZh7nOVDRpqpjngdT6OfwI/Vt+k5j0k/jV/Qq/k06f0c/gR+rb9Jy/pJ/Gr+hX/JpEt/zqnjxR3qfjR8DlIm30Lq7icarvT6vKtgrbblTnln0mLTWhL8EyLdsZ2BmXYba3DLPPd2yz1sNPQxWPVv6+BC0JaOlhs6yNXsQasXhnHK2oH/ACsQrfImXVKP0ShbE4dRxa6kDxcS8JUdLL6ovsZPscdFlN6117GOxSj/ABS3+oBvrNWj5d02+uT7WkMSR+eseSKD+00st6Lerg+xcCDUX1y73xPpEmfOj5d0z5zunichJkRMmBERAJnYejjG7Nl9JPsMgsHYwIB+TDynHTptQMObMRbl8NJzPey5fsZwuYxlSalls4nWg2qia52H0ekHRRS1cUo9i3JbOywDcfEAeXbORlz6SwaYil6XHs2Ll2g8QR2g5HwlPY7CPRa9LjJ62Knt6EdhG/xkPoy51lPQeceG7yy8jteUtGWksnxMMREsiIIiIAiIgCdJ6P8AF+rxmweF6On9w9ofsZzcyYW9qrEtU5NWyuveDnOdanrKcoda/wBG9OehJS6i6b6g6Oje66srdxGRlIY3CtRbZS/vVMyHw5/Xxl06NxiYimu5D7Ni59x5g9oOY8JyHpA0AX//AGVLmygC9QN5UcH7cuB7O6UPR1bVVHTnsx9GuWiyuqenBSju4H2ejjEI2EasMNuu1yy8wG3qe7j5TnPSR+NH6NX7vNDonSVuFtW6psmG4g+668ww6T7NaNLrjb1vVCn3daMpOeTAtnkeY3iWELeULp1NzT8HsI0qylQ0d6wO79HP4Efq2/Scv6Sfxq/oVfyadR6OfwI/Vt+k5f0k/jV/Qr/k0jW/51Tx4o71Pxo+BuvRf+Hv/UX+Imp9JWLSzEV1qc2oRhZ0DMQQO/IfOa7Qmsb4LDXVVL97a4Ic5bNa7IGeXM/KaVQ9r5AM9ljdrM7k/M5yTTtmrmVaWW7yzOE6y1MYLxOg1CwBuxqPl7GHBsY/1cEHnv8ACWq7AAknIAEk9BNJqpoQYLDhTkbbMnuI/NyUHoP+es+XXzSow+FNan7zE51qM94T4z5bv7pWXE3dXCjDLJe753EylHU0sZd7+PYrTSOK9ddbd/i2O/gTmPlPmkxPQrBbEVXeRPaNl3TzEziD6M4mFHy7pmE2TxNcBERMmBLN1H0WcPh/WOMrMRk5HNU+AfMnxnHao6I+14gbQzppyezdub8q+J+QMtaU3Stzs1Me9+y9/IsLKl/Y/D3E4v0gaH20GLQe1UNm3LnXyPgfkeydpMdtaurKwBVgVYHgQdxEqqFaVGopxJtWmqkXFlIRNlrBotsJiHpOex71TH4qzw8eI8JrZ6yMlKKlHJlI008GIiJsYEREAREQDp9TNYBhXNNrfcWncTwqfr3Hn59ZZW49xlHTp9WdbHwoFNwNlA3KRvevu6r2eXSVN/YOo9ZTz3rr/fHvzm21zoLRllufVz6d2Ww1m1J2ibsIACcy1BOQJ/oPLu4ftOExOHsqYpYjVuOKupU/OXbgsbViEFlVi2Ieanh2EcQewz1icLVcuzZWli9HUMPnIdHpGpT+moscPBr58SRUtIz2xeHApXD4++oZV321jjlXa6DPuBmG+97DtWWO7cNp3Z2y7yZbT6paOY5/ZVH+V7FHkDlMuH1X0fWc1wlZI/PtWfyJkr/lKOai8e5cczh/Dqda9SqtGaKxGLbZpqZ9+RbhWve3ASyNWdVasF945FmII9/L2axzCA/vx7p0aIFAVQABuAAyAHdNZpvT2GwS52vm5Hs1Lvsbw5DtO6Q617VuP+uCwT3La33vq8iRTt4Uvqk/E20qnX2jEjFs92+t91DLnserHw9jde/pOz1Y1oqx20hUV3LmRXnmGTkVPM9RNvpPR9WKram1dpG8weRU8jNKFSVpW+uPf+udptUiq9P6Xz2lIxNprBoO3BW7D+1W2ZqsA3OO3o3UTVz0MZRnFSi8UyqacXgxERNjAko+XdIiAZxJVSSAASWIAA4kngBMCPl3TtPR/oj1thxTj2KTlX0a3r4D5nsmtatGlTc3uNoU3OSijrtWtFDCYda93rG9u09XPLuG4eE28RPJznKcnKWbLuMVFYIRETUyc5rlof7Vh9pBndRm6ZDey/Ev17xKul6SrdddEfZcRtoMqcRm65cFf4l+vj2S66Luf6Zd6917lfe0v7F4/JzsSYlyV5ESYmQREmIBESYmAZMPibaW9ZTY9b9UYrn39e4zoMDr9jE3WJVaBzINb+Y3fKc3MbpzE41aFOp98U+evP1OkKsofa8DvE9IyfFhGB/puDfuoni30jfkwni130C/WcFEjfwLf/H1fydv5VXr9EdHpHXXHXAhXWlTyqBDf6jmfLKc67FiWJJJ3kkkkntMiJIp0oU1hBYdxylOUnjJ4num1q2V0Yq6EMrKciCOktHVLWdcavqrMlxCDeOAsA+JfqJVc903NWyujFXQhlZTkQeycrm2jXjg89z53G9Gs6b2Zb0XZpPR9WKram1dpG8weRU8jKd01o/7LiLaNsP6s5BhzBGYzHI7986a7X61sNsLXs4kjZa7dsAfmVfzdnD9pxrsWJJJJJJJJzJJ4kmRrC3rUcdPYurt6+c/A7XNWE8NHPnYRERLIhiIiAZ8Bg3xFtdNYze1go7OpPYBmfCXRozBJhqa6E92tQM+bHmT2k5nxnJ+jrQuwhxjr7Vua1Z8q+beJ+Q7Z3EoekrjTnq1kuP6yLO0paMdJ5vgIiJWksREQBNXp/Ri4yh6Tubc1bflsHD/AIPYZtIm0ZOElKOaMSSksGUdbWyMyMCGQlWB4hgciJE7H0g6I2HGMQey+S3Zcn+FvHh3gdZx09Xb1lWpqa/095SVabpycWRJiJ2OYiIgCRJiAIiIBidOYmKfTMbpzE1aMpmKJMiamwiIgExIiAIkyIAmz1d0S2NxCUjML71rD4axx8d4HjNZLX1H0N9kw4d1yuxGTvnxVfhXy3ntMi3lxqaeKzexc9nwdqFLWTweW86GqtUVUUAKoCqBwAHATJETzRbiIiAIiIAiIgHy43CpfU9LjNLFKnx5jt5yn9J4J8NdZQ/vVtlnyYcQR3jIy6pyGvuh/W1DEoPboGT5fFV18Dv7iZY9G3GrqaDylx3fHkRLulpR0lmuBXcSInoSqJiREAmJEQCYkRAJiREA8OnMTHM88WJzEw0bIxRJkTUyIiIAkxJqrZ2VFBZnIVVHEsdwEA6LUjQ32vEB3GdOHKu/Rn+BfMZnu7ZbE1WruilweHSkZFstqxh8Vh97w5DsE2s81eXGuqYrJbFz2/Bb0KWrhhv3iIiRTsIiIAiIgCIiAJ5ZQQQQCCCCDvBE9RAKh1m0QcHiGrAPq29uo/0Hln1HD/7NTLb1k0MuNp2Mwtie1U/Ruh7D/wB4SrMdgrcPYarUKOvI8COoPMds9LZXSrQwb+pZ/Pz2lRcUXTlisudh88REmkcRETIEREAREQBERAPFicxMczzxYnMTRoymY4iRNTJM7X0c6G23OMcezWSlQI4vl7TeAOXeeyaDV7V+7HWAKCtSn7y4j2VHML1bsluYLCJRWlNa7KVqFUdkrekblQhq4va8+xfvgTLWji9N5I+mIiUZYiIiAIiIAiIgCIiAIiIAnzYzA03rsW1LYvRhnl3dJETKbTxQwTW0rbWDRtNLkVpsjptOf3M0uwOkRPUW8m4LEpJrCQ2B0jYHSInc0GwOkbA6REAbA6RsDpEQBsDpGwOkRAGwOkbA6REAxW1jPhOv1P0FhLsmtpDkfmZyPLPIxEh3knGk2mSrdJy2nf1VqgCKoVVGQVQAAOwTJETzZZoREQZEREAREQD/2Q==;" vertex="1" parent="1">
          <mxGeometry x="300" y="488.12" width="98" height="86.88" as="geometry" />
        </mxCell>
        <mxCell id="I_HEO3aWKhT4bS8Z9P9y-14" value="&lt;font style=&quot;font-size: 20px;&quot;&gt;Analytics&lt;/font&gt;" style="text;html=1;align=center;verticalAlign=middle;whiteSpace=wrap;rounded=0;" vertex="1" parent="1">
          <mxGeometry x="696.5" y="417" width="130" height="30" as="geometry" />
        </mxCell>
        <mxCell id="I_HEO3aWKhT4bS8Z9P9y-15" style="edgeStyle=orthogonalEdgeStyle;rounded=0;orthogonalLoop=1;jettySize=auto;html=1;entryX=0.5;entryY=0;entryDx=0;entryDy=0;" edge="1" parent="1" source="I_HEO3aWKhT4bS8Z9P9y-1" target="I_HEO3aWKhT4bS8Z9P9y-6">
          <mxGeometry relative="1" as="geometry">
            <mxPoint x="285" y="390" as="targetPoint" />
          </mxGeometry>
        </mxCell>
        <mxCell id="I_HEO3aWKhT4bS8Z9P9y-16" value="&lt;font style=&quot;font-size: 20px;&quot;&gt;Data source&lt;/font&gt;" style="text;html=1;align=center;verticalAlign=middle;whiteSpace=wrap;rounded=0;" vertex="1" parent="1">
          <mxGeometry x="10" y="135" width="130" height="30" as="geometry" />
        </mxCell>
        <mxCell id="I_HEO3aWKhT4bS8Z9P9y-18" value="&lt;font style=&quot;font-size: 20px;&quot;&gt;Batch processing&lt;/font&gt;" style="text;html=1;align=center;verticalAlign=middle;whiteSpace=wrap;rounded=0;" vertex="1" parent="1">
          <mxGeometry y="363.5" width="130" height="30" as="geometry" />
        </mxCell>
        <mxCell id="I_HEO3aWKhT4bS8Z9P9y-20" value="" style="shape=image;verticalLabelPosition=bottom;labelBackgroundColor=default;verticalAlign=top;aspect=fixed;imageAspect=0;image=data:image/png,iVBORw0KGgoAAAANSUhEUgAAAT4AAACfCAMAAABX0UX9AAAA8FBMVEX///9cTuUAAABAQLJbTOVVRuTNyfawq/FMTEz5+P5XSeQ1Na/Ly+mMguyjo9gvL65LOuP29vZERESGhoa1tbXU1NRhYWFZWVlSUlKkpKSbm5s/Pz/m5uYICAh4eHjt7e3Kyspvb2/o5vvV0vjAwMAdHR3Q0NDn5+e2trYpKSk2Njbc3NxSQuReXl4nJycQEBDDv/WMg+xvYujz8v2hmu/k4vqBd+pjVea6tfNwcMNGRraIiM0rK62Siu1/f3+RkZGqpPBdXbx3bOnb2PlqXedHNOMhIat6esi4uOHW1u5PT7iurtyclO6UlNG9ufNkZL4NU1eTAAAJe0lEQVR4nO2caUPaSBiAAYlcag0EIYAQEBAIghWv2gIe3dp23e7//zc7V5LJMTkIgq7v80WHJEPmSebNXCSRAAAAAAAAAAAAAAAAAAAAAAAAAAAA2Bb3T9s+g3fN/uFlZ9vn8I7Zz0vfb2fbPot3y34+mR4/7m77NN4rSF8ymU/vX237RN4nRF8yLaUvoQavANWHBX6/zW37ZN4fhj4kcHwNITAqlj4cAj9DCIwGrw/V4OQ9hMAo2PSREHgOITA8Dn0kBEI/LjQufTgEzqEfFxIPfagG32SgBofCSx8JgbsgMATe+rDAzxACgxHpS6bz6RdoxAQh1IefwRe32z69t46PPiTwLwiA/vjqSx6CPn+C9WXiDUbnDg7Wda5vkBD6Dh9PVs9/78uPD65PykvXK47E/HouFAofXR/uhlyukHfuYKewswP6SD8u6mB07ieWB/ok8m96vB8pBP76QuSBPokl8ofz0CGw8/yJ2QN9ZhLV4HC5Hvw25IE+Sx+qwcngkZjczztLHuiT+E/SUtCMOmqs7OyAPm99yTQKgT7dkM7Xb3Z7oM/xYVq6yIiy+/u3Qx7oc+rDIfC714x6bu/3J6c80OfWhxoxeXcjpvPsuvNAn7c+VIMd6ypnrqD3EfTNx37+xPpICDy38vn7wVve/1xfYvdCSq+kj4zms37c3oNH0PsQ+hKzjCQU6K8Pz6jj6aTZV6G7bek71bqaLm/muzovkqAGB+lDNRg9gvd+vC19einFKLY28oUnj94Cg/WlsT5xzeX1Ncoi1lvIbi9l0lhrzmL+PI49avBa9R2lRJTWWZL+sZXxcDN3H2L2knaHwLXqawv1LddZEP4qVTcU/jBXc1cNfo/6jExHw2mqvc6MA3E1Yt6hvj7N8khvnTZ0fY0Zh+H2u03ghvStM/YpNMv+GrOMQOclz9XgteqrHbUpR/TR2Gsb6cEaC6BSfRt7Zjh5+mw9g9eqz6JI4/qrnD7Vd7zBZ4aDnBUCX0ef/L/WhwRmbqjAjenTtS5C0M3S7TVRZnFN1vv4IK1vO8pbX4vs2he0ovvOvcvdwUDjkujstCgXpDNP5jemT65VUSMDMakvjGdlt55F4FT/rIdi4wInm6gIslqsoz/90llxSGLoca9eUWjZ1Gy1MqKxD++eLSo0f7UyIrv2RpWaYaFWRDvU8X9KpYe+p4oPaOCLUqrU8d7H5NvlxhIlUUt8WrV8huDkGoXAjehTpvxTmJVPYc9PrYr+qInEGU4OZVlFJZvoCc3x7O6RO3LpfKSrJKse/9FUpd9K+8Voax39KbPm4qBRm3C76i21zh0a6Wme+3MhbUJfzVHkBaev1iY9sBrrSxwr5MipljjtOY5Cn3noU7w+XHD6VHJZUuhg8kXDoW3P0ciWjNiHmd1vQF/XWbpU19LHKDk6zGgPe8EQEy9TA0dGlKWlj6EwfQFokfShRszr6yuyUxuOhqwSV2SnviPZrg+VNov+HE97k4l5G2o2fVOClmiNrE/MjS2nvlI4fWpEfZjX1cduvpHSkuUy65f0nfoWDn3IlNpUFa2vNxpltWgq0AfdbpMkjjWCbOZT6vb73RpzvXTqq9n19ez3tplsrqDvPOnjL1hf4e6nnz4W+egDt5UlCcWu7wgFdk7fZOnoUci05Gx4gDVcjI3sinRpqkzvwIpNX6+JMzT0Tc6URkseGLdqr6qipEaTZyvoSzy9iKeTAvUVnt2/j+P0yW2+6Kz2NXl9FVpyU1/J3Xaj4f9M5vWxKC8P7bcNvTdHDU5fm146qm9SY9nTC9lb6vxVWLGhv3stmg0J0Fd4+OWRHa+vSv6tsS2quYHpmxjhhumrlj3yW9BNLS999DAzaNEGT69s6htqbAvVZ479ZG2XlWlftZ+Uc4zEhNOH6q3ncixeX91WPFp23Jhl+ozCMX0jz7OjJrI++hRjV51u1YyDhuaQ1rHtOjJ9jrt2FX1XZEHQ7OXGKwT66Cvc/SNYSsTpa1F9wzplaEpi+sybjeoreuYXQ1/91NjiqW8Nd9/9xR/y9+raIwSK9X179qq3tEwufXZC6tMUlVKNoc+MpK+lLzOWruls+MlF3lmDRfoK/+6Jc1yHPlkdOlpqb1WflM6P6XqW2W3eEQK99RXuDvzWoK5DX9N11JvVR16xkSGBrPOSzAfpK9x99f8ZV5C+YbC+gfuoN6yPrGehS/pO9g/zvvo+fREGPaG+tsLTDdbnMW8SQV9q4/rwkr5HuqTv/NGqwS59hQefoMdw66u59vHX16KP6IouI6I/eaf9zetLpvNJ+p6w2b05o+7QVygchPj5Jd/uo6fpnqn013dq3kSYYH1ms5l2sa1m8wb1ca/YmM1ZCLTpK+x8DfUGE17fkeC8wujrsa1++kZ2DW1T2hb0ce8JO6FrYnh93/waKzz8kMHSoQltJRrC6MNPAMxCrM8IkmwqlA1SW0MGG9aHQqDE3hN2jufjLH2FB9fIigheH9PUq+mNRkPXu6U6rckBsY+OPC1OW61Gl7aaBfqMoYezLsrceODgurwlfdZ7wjr3Y8nQVyiIemge8Ppkc7hz2mODRG2u2AJ9coVuHmZHZuPZW1/LNSyNwBu3pY+EwHMi62qeJ8sjv+14DEuJsY02q67CEQ8BDRf3UQJ9Xi1E8iDZnj4skL0nbBcvD9+7Cxn0GPapIlf/YYqdBehrOaeKhPrcEyB0Rc029eEQuE9uuBxe2xzxh9JslCrLkvzcIPncSx8dEq2beWiWv5FKYlqR15fiJsW6tp5NnbUBqb6RqS9l11f00pdNREcw14EbMSvkhpHbeIq6aA6m6dZs6vRModP5WraCqJqlW1Zxmpts0I0B1MFpYoA2VhfUmNZuYvjvaw3MseqKYoxQqTRDc+D/iHyf2b5u4s1V02aNJFdZCSacKlrrqxJbZU2LuMZZLgtXXXjt3O+Xt7HwxWemDd4TFozfRGVakmK84+VDEDzPC/gA+mIB+mIB+mIB+mIB+mIB+mIB+mIB+mIB+mIB+mIB+mIB+mIB+mIB+mIB+mKR8XrFBugLC17SJxQI+oJ5ErwkB/SFZPdCUINBXyhmGY+X5IC+8Fxdev00C/SF5uTaHQJBXwTc7wkDfVGYXd7YQyDoi0ZnLvGtQNAXFdtPs0BfZHJ/bswQCPpWoHNp/DQL9K3EE3vfM+hbkV3y0yzQtyrkPWGgb3VmcyQQ9K3O0/UY9MXhHBbnAgAAAAAAAAAAAAAAAAAAAAAAAAAAbIL/APPtB533qjL2AAAAAElFTkSuQmCC;" vertex="1" parent="1">
          <mxGeometry x="185" y="610" width="200" height="100" as="geometry" />
        </mxCell>
        <mxCell id="I_HEO3aWKhT4bS8Z9P9y-21" value="" style="shape=image;verticalLabelPosition=bottom;labelBackgroundColor=default;verticalAlign=top;aspect=fixed;imageAspect=0;image=data:image/jpeg,/9j/4AAQSkZJRgABAQAAAQABAAD/2wCEAAkGBxAPDw0NDg4UDQ8NEw4ODw8NDw8QDQ8QFhcXGRYSFhcZICkhGRsnHxYYJD8iKC4sLzAvGCA1OjUtOSkuLywBCgoKDg0OGxAQGzknICYuLiwsMS4uLi4uLi4uLC4sLi4wLiwuLCwuLC4uLi4uLi4uLCwuLC4uLiwsLi4sLi4uLv/AABEIAOsA1gMBIgACEQEDEQH/xAAcAAEAAQUBAQAAAAAAAAAAAAAAAQIEBQYHAwj/xABKEAACAQMAAwoICA0EAwAAAAAAAQIDBBEFITEGEhMyQVFSYXGRBxSBk6Gx0dIVFiIzU1RysxcjJDRCYnN0gpKisvA1lMHhQ2Px/8QAGwEBAAIDAQEAAAAAAAAAAAAAAAECAwQFBgf/xAA1EQACAQICBggFBAMBAAAAAAAAAQIDEQQhEjFRYZGhBRQyQXGBscETFSLh8COi0fEzQlIk/9oADAMBAAIRAxEAPwDuIAAAAAAAAB43FeFOMp1JKEI65Sm0orysrnNRTlJ4UU229iS2s5Nuj05O8qt5aowb4KnyJdNrpP0ZwZqNF1XuMNasqS3m2aR3d0YPe0Kcq76UnwdPyZWX3I1+73bXs+JKFFcnB0033zya22elS2qRjv5Upxh0pQkod7WDoRw9OPdx/LHPliKku/h+XLuvp+8nxrur/BUlBd0cFnUvKsuNWqS+1Um/WzwbIbM2ilqXJGJyk9b5smUm9rz2kKo1sk12NopbKWwQXMNI148WvVj9mpUj6mXdDdPfU+Ld1P42qn96ZiGyGyrhF60WU5beZt9h4QrqDSrQp148urgqnetXoN10Dunt7z5NOThVxl0avyanW48kl2eXBxliM3FqUW4yi1KMotqUWtjTWxmGphoS1ZMzwxM468/zafQYNP3DbqXdxdvXa8Zprjalw0F+ljkkuVdeVypbgc2cHB6LOjCamroAAqWAAAAAAAAAAAAAAAAAAMFuzrunYXDW2ajT8k5JS9DZyhnTvCE/yF/tKXrOYNnSwa/T8zm4x/qeRv24HQlPg1e1Iqc5SkqO+WVCMXhyS6TaevmXWzdWs6nrT1NPYav4PtIRqWioZ/GW7mpR5XGUnKMuzW15DajSxDbqO5u4eyprR/Gcv3d6EhbVKdajHeUq++zBaowqLGzmTT2cmGaq2bv4TdIxlKhaxacqe+q1P1W1iMe3GX3c5ozZ0aDbprSOdXSVRpBspbDZQ2ZjCGylkspYJDIbDZS2QC40bfytq1G5hxqMlPHSX6UexrK8p3ulUU4xnF5jNKUXzprKZ88tndtzLzY2Le3xe3+7iaWMWUX5G9g3rRlAAaJugAAAAAAAAAAAAAAAAAGs+EL8xf7Sl6zlzZ1Pd5RnUsnGnTlVlwlN72nCU5Yy9eFrOdPQ119Ur+Yq+w6WEaVPzOdi4t1Ml3ItbW6qUZqpSnKnOOyUHh9nWuoy9XdlfyjvOH3vI5Rp01N+XGryYLB6FuvqdfzFX3Sl6Fu/qdfzFX3TPJQlm7GCPxFkr8yxnNtuUm5OTbbk25Nva23tZQ2X70Ld/U6/+3q+6Q9CXf1Ov/t6vultKO0r8OWzkY5shl/PQ10k27Sukk226FVJJbW3vdRjmwmnqDTWtBshslspbBAbKGw2UtgkNndty/5hYfu9t93E4O2d43L/AJhYfu9t93E08b2V4m5hNbMqADQN4AAAAAAAAAAGG3Q6fp2cE5fLqzzwdJPDfW3yR6yYxcnZESkoq7MtOainKTUUtbbeEl1sw1zursqbw7hTf/qjOou+Ka9JzfS2l691LfVqjks5jTjqpR7I/wDLy+sx7N6GCWub4GjPGv8A1XE6f8eLLpVPNSI+PNl0qnmpHL2ylsydTp7zH1upu4HUfj3Y9Kp5qQ+Pdj0qnmpHLGyGx1OnvHW6m46n8fLHpVPNSHx8selU81I5U2UNkdUp7x1upuOr/H2x6VTzUiPj/YdKp5qRyhspY6pT3k9bqbjqOkN3NjOjWpxlU306dSEc0pYy4tI5aGylsy06UafZMVSrKprDZQ2S2UtmQoQ2UtktlLYBDZ3ncu8aPsOq2tvu4nBTvG5n/T7L92t/u0aWNf0I3MH2mX/jsP8AEPHYf4jHA8gulK+7h9zs/AiZHxuHO+5ntCaexp9hiBGbTynh9ReHStRP64prdl6toh0F3MzQLa0r79a9Ult6y5O3TqRqRU46mazTTswAC5BaaRvI29KpXnxacXJ875orrbwvKcg0lfTuKs69V5lN56orkiupG6+Ei8ap0bZP5xyqz7I6op+Vt/wmgM6WDp2jpd79Dm4upeWjs9QylslspbNs1CGylslshsAhspbJbKWyCQ2UMMpYJDIYbIbADZQ2GylsgkNlLYbKWwA2UsMAA7xuZ/0+y/drf7tHBzvO5xYsLJPU1bW+er8WjSx3Y4+huYPtMoIyCMnz3uPQAjIyQQSV0au8kpLk9POZlPOtcpgcmWsKmaa6so6/RFe0pU335r35W4GviIZKRdAA7xqHLd3tzv76pHkowp0l3b9/3+g1xsvtO1t/dXU9uatXHYpNL0JGPbO1TVoJbji1Hebe8NlLYbIbLlA2UthspbIJDZQ2S2UsEhlLYYbAIbKWyWyhsgENkNhspbBIbKWw2QAAAlybc6kltb5iAXOjbKVzWo20ONXnGmscie2XYll+Q75XSp0t5HUklCK6sYx3Go+D3cnK2XjdzHe16i3tOm9tGm9rfNN+hauVo2W9rb6WFsj6es4XS+MUKbSe1LxevgdXA0Gs3+ItskZGSDxh2BkjIyUlSSS/0VPXOPY/aY4utHSxVS5016MmzgKmjiYeNuOXuVqq8GZkAHrzmnC6099KUuk5PveTzbK6sd7KUei2u5nm2dw4YbKWw2UtgBsobJbKGAGQyUm2kk220kkm229iS5WdH3LbhoQUa97FVKjw40Hh0qf2+ScurZ27THUqRpq7MlOnKo7I0XRuhbq6129vOpHp4Uaf88sJ95nYeDu+ksudGHVKrUz/AExZ0+dzCHyduNWFsXUeLv3yRXlZx63TFOErXXBs6NPAK2efI5w/Bve/S2/na3uEPwbXv0tv52t7h0jx6XR9Y8el0PWYfnlPb+1mTqC2czmv4Nb76W387W9wh+DS++lt/O1vcOl+PS6HrHj0uj6x88p7f2sdQWzmcz/BpffS2/nK3uEfg0vvpbfzlb3Dpnj0uj6x4/Lo+sj55T2/tZPUFs5nOrbwYXLf465pU1z0o1Kr7mom36A3HWlk1VSdatH/AM1fDcPsLZHt29ZlJX8uRY7y2q1pS4zb/wA5jXr9OxcbRu+S/nkZKeBUXe3uXN3eZzGGzllzllkZIPO18ROtLSn/AF4HQhBRVkMkAg1y4yQCMlblge1m/wAZT8npPDJ6WfzlP7S9Zei/1YeK9SJdlmwgA9wck4np2lvLq6hs3tWtjs3za9GCwbNi3f23B39V8laNOqu7ev0wZrjZ2abvBPccaorTa3kNlLZLZQy5QMpYZKi21GKzKTSiudvUkAb74NdAqWb+rHOHKFunsytUqvriuyXUbxd3H6EfKxZ20ba3p0YbKMIwXW0sZfa/WWR5PpfGSvoxev0+/wDJ38JRUY+HqAAedN4AEZAJIyQRki5NiSMkZIyVuTYkpyMkFGyQRkEFSwIBGSpIyRkZIyVuSMlxo5Zqw6s+hFrkyOhYZlOXR9b/APhsYGGniacd6fDP2KVnowbMwAD2xyjQvChZ/JtrlLiuVGX8Xyo+T5Mu8582dt05o5XVvWt3q4SPyZP9Ga1xl5GkcTr0pU5Tpzi4zg3CUXtUk8NHSwk7w0dhzcXC09LaebZDDKWbRrBsvNBrN1Zp8te3X9cSybLzQT/K7L9vb/3xKy7L8C0O0juF9xH2oxxkb/idxjjwnSf+fyXqz0lHsgAg5xmGSBkpyVuTYnJGSCMlbk2JIyQRkrcsCAQUbJSJIyRkjJUkZIyMkZKtlhkjJJBVskgzui6W9prO2fy35dnowYe1ocJOMOR631I2U7vQlC8pVnqX0r34avNmpi55KAAB6Q0AaXu33KO5zdWyXjCSU4akqqWxp9NbOtdiN0BeE3B3RWcFNWZ8/VYShKUJxcJReJRmnGUXzNPWmUNncdKaEtrpflFCNRpYU9caiXMpxw0vKYGt4O7KTypVoLmjUg1/VFs3o4uDX1ZGhLCTTyfscqbLvQL/ACuy/b2/98To/wCDez+luP56XuFdr4PrSlUp1oVa++pTp1YqU6W9coSUkniGzUTLFU2mvYRw1RNPLibRf8TuMbkyWkOI/IYzJ4vpT/P5L3O7Q7IIyMkHMM4yQRkgq2STkgmCy4rnMn8HQ55fzf8ARsYfB1cQm6fdvKTqRhrMUQZX4Nhzy717B8GQ55d69hn+UYnYuJXrFPbyMTkjJl/g2HPLvXsI+C6fPLvXsI+T4ndx+xPWaf4jEZKcmZ+C6f63evYR8FU+eXevYV+TYrdx+xPWaf4jDZIM18FU+eXevYPgmnzy717CPk2K3cfsT1qmYUmEW2kllvYltMytGU/1n2v/AKLmjbwhxIpf8l6XQdZy+uSS3Zv0t58issXC2R46OtODjr40tpegHpaNKNGChDUjRlJyd2AAZCoAAAAAAAABa6R4j7UYvJlNI/NvtRisnm+ln/6PJe5u4fsDJGRkpOWZySCAVuWCeNa2o9vGqnT9J4ZKciNWcey2vBteg0U9Z7+N1On6SPG6nT9J4ZEU28JZb2Ja2yesVv8At8WToR2Ht47U6b7yPHKn0j7yZWNVLPB9zTfdtLYmpUxNPtuS8XJeojGEtVuR7+OVPpH3mdtm3CDetuKbfO8GtmyWvzdP7MPUjrdCVJzqT0m3ktbb797NbFxSirLvPYAHojRAAAAAAAAAAAAAAAAAALTSXzb7UYkzdxDfwlHla1GDZ5vpiLVaMu5r0efqjdwzvFoZIBGTkXNoEZGSMlWyRkjJGSMlGybE5MvoiklBT5Z5182HjHoMMZbRFwt7wT2ptrrT1nS6IcFiVpbHbxy520jBik/h5GUMPpmgk41Fqzql1vkZmDCaWuVJqEXlRy21s7Dt9MOCwslPy8f6vfdc1cMn8RWLA2S1+bp/Zh6ka7SpucowW2T/AMZs0YpJJbFqRz+gYO8592S89fJGfGSySKgAejNAAAAAAAAAAAAAAAAAAAGOvrPOZwWv9KPOZEGHEYeFeGhPVzT2r83PItCbi7o1tlOTO3FpCpra185jqujJritTXceZxHRdek/pWkt2vhr4XN+GIhLXkWWSMldWjKPGjjrefWeZy53g7Sye/I2VnqJyQCClyQAetO1qS4sM9eMLvZMIOo7RV/BX5INqObKXXm1hzbXM3qKIRbaSWW9iW0yNHRMnx5KK5o6/TyGSoW0Ka+Ssc/K2deh0TiKzTqvRW/N8O7z1bzVniYRyjmW+j7Lg1vpa5vuRfgHpqNGFGChBZI0JzcndgAGUqAAAAAAAAAAAAAAAAAAAAAAAADynQi9sU+1JnqCGrqzBbOyp9BE+J0+gvWXAMaoUl/ouC/gtpy2nnTpRjsSXYkegBlWSsioAAAAAAAAAAAAAAAAAAAAAAAAAAABDKGAV5Kd+UMoYB68IOEPJlIB7cIOEPEAHvwg4Q8CUAXG/JyW6K0AewPNFaAJAAAAAAAAAAAB//9k=;" vertex="1" parent="1">
          <mxGeometry x="317" y="293.22" width="64" height="70.28" as="geometry" />
        </mxCell>
        <mxCell id="I_HEO3aWKhT4bS8Z9P9y-24" style="edgeStyle=orthogonalEdgeStyle;rounded=0;orthogonalLoop=1;jettySize=auto;html=1;entryX=0.5;entryY=1;entryDx=0;entryDy=0;" edge="1" parent="1" source="I_HEO3aWKhT4bS8Z9P9y-23" target="I_HEO3aWKhT4bS8Z9P9y-25">
          <mxGeometry relative="1" as="geometry">
            <mxPoint x="596" y="286.94" as="targetPoint" />
          </mxGeometry>
        </mxCell>
        <mxCell id="I_HEO3aWKhT4bS8Z9P9y-23" value="" style="shape=image;verticalLabelPosition=bottom;labelBackgroundColor=default;verticalAlign=top;aspect=fixed;imageAspect=0;image=data:image/jpeg,/9j/4AAQSkZJRgABAQAAAQABAAD/2wCEAAkGBxAPEBAPDxAPEBAQEBAVEBUQEBUSFxUVFREXFhUXFxMYHSggGBolGxcVITEhJykrLi4uGB80OTQsOCgtLisBCgoKDg0OGxAQGy0lICYtLS8tLS0tLS0tLS0tLS0tLS0tLS0tLS0tLS0tLS0tLS0tLS0tLS0tLS0tLS0tLS0tLf/AABEIAOEA4QMBIgACEQEDEQH/xAAbAAEAAgMBAQAAAAAAAAAAAAAABgcBBAUCA//EAD0QAAIBAgIHBAgFAwMFAAAAAAABAgMRBAUGEiExQVGBEyJhcSMyQlKRocHRFGJyseEzktKCwvAVNGODov/EABoBAQACAwEAAAAAAAAAAAAAAAAFBgECBAP/xAAzEQACAQIDBgQGAQQDAAAAAAAAAQIDBBEhMQUSE0FRsSJhceEygaHB0fCRFCNS8RVCYv/aAAwDAQACEQMRAD8AvA5ub5xSwsbzbcmu7CO9/ZeIzvNI4Wk5uzk9kI83b9itsViZ1ZyqVG5Sk9rf/NiOW4uOHktST2fs93D35fCvqdXMdJ8RWuoy7KPKG/8Au3nIdaTes5Sb5uTv8TwCLlUlJ4tlmp29OksIRSOxl2kmIoNd51Ie7Ud/hLeTHKs/oYmyT1J+7NpPpzK2CZ7UrmcPNHJc7No1s0sH1X3RcAK/yfSirRtCrerT8fWS8Hx6kzy7M6OIV6U0+cd0l5xJKlXhU0K5c2VW3fiWXVaG8DFzJ7HIAAAAAAAAAAAAAAADBq43H06EdarOMVwu9r8EuLIfnGls53hQvTj7z9Z+XI8qlaFP4v4Oq2s6tw/AsuvL99CUZpnVHDLvyvLhCO2T6cCHZrpRXrXUH2UOUXtfnL7HDlJttttt723cwRtW6nPTJFittl0aWcvE/PT+D260r62tLW56zv8AE6mA0kxNFq83UivZnt+e85APCM5R0Z21KFOot2UUyyckz2lilZdyot8JfvHmjrlQ0qsoSUotxlF3TXBli6OZwsVT71lVhbXXPlJeZJW1zxPDLXuVvaGzuB/cp/D2/KOyADrIornS3HOriJK/dpd2Pn7Xz/Y4p7rtuUnL1nKTfnfaeCCqScpNsvNCmqdOMFyQABoeoAAAPdCtKnJShJxktzTseAZDWKwZL8n0u3QxK/8AZH/dH6ollCvGpFShJSi9zTuVIbeX5lVw8tanNrmt8X5o7aN5JZTz7kNd7IhPxUcn05e3YtYEdyjSmlWtCr6Kp4+q34Ph1JCiQhOM1jFlfq0Z0pbs1gzIANzyABgAyDBxM40jo4e8U+0qe7Hh5vgaznGCxkz0p0p1JbsFizsVKiinKTSS3tuyIvnGlsY3hh1rvjN7l5LiRnNM4rYl9+T1b7IR2RXTi/E0CPrXjeUCftNjxj4q2b6cvn17ep9cVip1ZOdSTlJ8W/25HyAOFvHNk0korBAAGDIAAAN/Isc8PXpzvaN1Gf6Xv+/Q0AzaMnFpo0qQU4OEtGi3tZc0YK6/6hif/J8WCR/rY9Ct/wDDy/yX8mdKsv7HESa9Specer7y+JxiydI8s/E0Gku/C8oeaW7qVs0ct1S3J+TJbZl1xqKT1WT+zAAOYkQAAAAAAAAAjs5PpHWw9ot9pT92T2pflfA4wN4TlB4xPOrRhVjuzWKLPyvN6OJXo5d7jF7JLpxOkU/Cbi1KLaa2pp2a6kpyjS6UbQxKcl78d681xJCleJ5Ty7FeutkTh4qOa6c/fuTcwfHC4mFWKnTkpRfFM+x3EM008GRbS+vi4R9G0qLVpOF9ZP8AM+C8iEMt2rTUk4ySakmmnxT3ldaSZO8NU7v9KpdwfLnFkbeUnjv8uxYdkXUMOC0k+T6+vmccAHAToAAAAAAAAAN3J8C8RWhTW5u8v0reaSJ7odlfY0nVmu/VS6R4Lrv+B729PiTw5cziv7ngUXLm8l++R3PwdP3UD7mSYwKhvy6mCv8ATDK+yq9rBejq7dnCXH47/iWAaWbYGOIozpPiu6+UlufxPOvS4kMOfI6bK5dvVUuWj9CrAe69GUJShJWlFtNeKPBClzTTzQABgAAAAAAAAAAAAG1gcfVoS1qU3F8eKfmuJMso0qp1bQr2pT537r68CBg9qVedPQ5LmxpXHxLPqtfct+LT2rajQzzALEUJ0/ateHhJbiC5Rn9bDWSevT9yT4eD4E1yrPKOJVovVnxhLY+nMkqdenVW79CuV7GtaSU1mlzX36dvMrWStse9bzB1tKMN2WKqpbpvXX+ra/nc5JEzjuyaLVSqKpBTXNYgAGp6AAAAAQV9i2t7gDq6N5Z+JrRTXo4WlPyT2R6llRjZWXA5WjmW/hqEYv15d6o/F7l0Ww65NW1Lhwz15lP2hdf1FXL4Vkvz8+2BgyAe2BwgwZBkEN03yvdiYL8tW3yl9PgRAtvEUI1IShJXjJNPqVdmmBlh6s6UuD7r5xe5kZeUd2W+ufcsux7rfhwZarT09jVABwkyAAAAAAAAAAAAAAADMW07ptNbmnYwAD74vGVKzTqS1pRjq3e9pbrvifAAy3i8WYjFRWCWCAAMGQAAASXQzK+0qdvNdyk+7fjP+PsR/CYeVWcacVeU3ZFo5dg40KUaUN0Vv5vi2ddpR35bz0Xcitq3XCp7kdZfRc/50RtIyASxVgAAAAAAR3TDK+2pdrBekpbfOPFfUkRho0nBTi4s9aNaVGopx5FPsHX0myz8NXaivR1O9Dw27Y9PqjkEHOLg91l1pVY1YKcdGAAanoAAAAAAAADIAAAAAMAAAAAAAA38jy94mvCHs75vlFb/AI7uptGLk8Ea1KkacXOWiJNoVlWrF4ia70tlP9PF9foSw+dOmopRirJJJJckfQm6VNU4qKKVcV5V6jqS5/RAAHoeAAAAAAAAABwNMMH2mGcuNJqS8tzK9LXzKnr0asfepzX/AMsqgjL6OEkyybEqN0pQ6PugADhJoAAAAAGQTHRvRpWVbERu3thB8PGXj4GdFMgSUcRWSbdnTi+H5n4kuJK2tv8AvP5Iru0dpN40qT9X9l9yMaQ6NxqR7TDxUakV6qVlJfRkGkmm01Zp2aZcJGdJsgVZOrRSVVK8lu11/kZubbHxQ1NNnbS4f9uq8uT6evl29NIIACMLIAAAAAACcaC4TVpTqvfOVl5R/kg6LM0ap6uEoeML/wBzb+p2WUcamPQidszcaCj1fudQyASpVwAAAAAAAAAAADXxs9WlUlypzfwiypiyNKsUqeFqc59xdd/yuVuRl9LGSXkWTYkGqc5dWvovcAA4SaAAAAABkneimdxqwjQm0qkFaP5kuXiSYp+Emmmm007prgyd6O6RRrJU6rUaqWxvYp/ySdtc73glry8ytbS2dw26tNZc109u3oSU4ekeeRw0dWNpVZLurkubMZ/n8MNHVg1KrJd1b0vFlfYitKcnObcpSd23xNrm53PDHXseez9nOs+JU+Hv7HmTu7viYAIotAAAAAAARZujdTWwlB8oW/tbX0KyJ1oNitajKlxpyv0l/NzsspYVMPIidswboKXR+xJwYMkqVcAAAAAAAAAGGZOLpNmn4ei9V+kn3YeHN9F9DWUlFOTN6dOVSahHVkY0xzLtavZxd4Urrzlx+G74kfFwQdSbnJyZdbejGjTVOPIAA0PYAAAAAAAAyA2ADAAAAAAAAAAB0tHsx/DV4zb7ku7U8nx6OzOaDaMnFpo0qU41IOEtHkW9CaaTTumrpo9kX0NzTtIOhN9+n6l+MOXT7EoJynNTipIpVejKjUdOXL9xAANzxAAAAAAPnUmopybskm23yRWefZk8TWlPbqLZTX5U9j83vJNprmmpBYeD709s/CPBdfoQgjbyri9xFi2Pa4R40tXp6dQADgJwAAAAHulSlN2hFydm7JXdlv2GUsTDaSxZ4BlowYNgAAYAAAAAAAAAAAAAAAPvgMXKjUjVg+9F381xT8y0MFio1oRqQfdkk14c0/EqglGhOaak3h5vuz2wvwly6/Q7bOtuy3Xo+5EbWteJT4kdY9vb8k5BgyShWAAADBrY7Fxo051Z+rBN+fJLxNkg+m2aa01h4Puw2ztxly6HlWqcODZ02lu7iqoLTn6fuRHsbipVqk6k/Wm7+XJHwAIRtt4sukYqKwWgABgyAAADdyPE9liKU3uU0n5PY/3NIIzGW68UazgpxcXzWH8ljZxo9RxF5W1KnvRW/wA1xITmmTVsM/SRvHhOO2L+3UnmjuPWIoQk3ecVqz81x67zozpqSakk096e0lqlvCqt5ZN8yq0L6vaSdOWaWWD+z/V5FRAmub6JRleeH7j9x+r05EQxWGnSk4VIShJcGvmuaI2pRnTfiLFbXlK4XgefTn++h8QAeR1AAAAAAAAAAAAAzCbi1JOzTTT5NGABhiWdkWYrE0Y1PaWya5SX339TpFc6LZp+HrJSdqdRqMuSfCRYyJq3q8SGPPmU6/tuBWaWjzX4+QAB7nEc7PMwWGoyqe1ugucnu+/QrKpNyblJ3cm23zb3nc0vzHtq/Zp9yjdLxl7T+nQ4JEXdXfnhyRa9l2vCpbz1ln8uQABykmAAAAAAAAAdbRvN/wANVvLbTnsmuXKXQsenUUkpRaaaumuKKiJZobisSn2epKdG+1t2UPJvf5I7rSu09x/6ITa1kpLjReDWvLH37k0NXHYClXjq1YKS+a8nwNoySTWORXU2niiBZvonUpXnQbqQ5e0v8iNuNtj2Nb7lwWOTm2Q0cTta1KnCcdj68zhq2aecP4Jq12xKPhrZrrz+fXuVqDqZrkNfDNuUdanwnHauq3o5ZHyi4vBosFOrCpHeg8UAAam4AAAAAAAAATLC0SzPt6OpJ+kpWUvFey/l8ivToZBmDw9eE72i3qz/AEv7bzot6u5PyZw7RtuPRaWqzX4+ZaAPHax95AmN5FQwZUtdtyk5b3KV/O+08HX0pwXY4mezuzevHrv+dzkEFOLjJpl4oTVSnGS5oAA0PUAAAABRvsW18AAfTD4adWShTi5N7kkd/J9FKtS0616UeXtPpwJlgMvpUI6tKCiuL4vzfE66NpOWcsl9SKutq06WUPE/ovn+CO5PoilaeJes+EI7v9T4kppU4xSjFKKW5JWR9QSVOlGmsIorte5qV5Y1Hj2MGQD0PAGDIAPEopqz2p7yOZvopTqXnRfZz4r2X04EmBpOnGawkj1o16lGW9TeBU+OwFWhLVqwcXw5PyfE1i2sVhoVYuFSKlF701ciWb6INXnhnde5J7ekvuR1WzlHOGaLBa7XhPw1cn15exEge69CUJOM4uMlvTVmeDjJlPFYoAAwAAAAAbmUYJ161Omtzl3v0razMVi8Ea1JqEXJ6I2+xxPN/MFi9lHkCS/pH/kVz/lv/COZpDlKxVKysqkNsH+6fg/sVxWpShJxknGUXZp7GmW8cXPcgp4pay7lVLZK2/wkb3Nvv+KOpps7aHA/t1Ph7exXIN/MMnr4dvtIO3vR2x+P3NAi3FxeDRZYVIzW9FpoBG7l2VVsQ7Qg2veeyPxJjlOitKladV9rPk13V5Lj1PWnbzqaaHLc39Ghq8X0X7kRbKchrYmzUdSn78lZdFxJrlOQUMNtUdepxnLa+nI6qXI9ElStoU89WVy62hVuMtI9F9+vbyMIyAdBwgAAAAAAAAAAAAAAGlmGWUcRHVqwUuT3NeTIdm2ilWleVG9WHJLvrpx6E+MHjVoQqa69Trtr2rbvwvLo9CoJRa2NNNb77DBZma5HQxK78dWfCcdj/kh2aaM16F3FdrDnBbesSOq2s4ZrNFhttp0a2T8L6P7P/RxAZatse/kb+AybEV33KckvektVfFnOouWSR3zqwgsZNJGhGLbSSbbdkltbfCxYGi+S/hoOc16WaV/yr3fuesi0dp4a05PtKvvW2R/Svqd0kra23PFLUre0dpcZcOn8PN9fYAA7CHAMgyZPFT1WVzmv/crz/wBwBx3vwomNkfHL0LAwP9OPl9DYMg6o6IiZaswzIBlGoABkAAAAAAAAAAAAAAAAwZBhgwZAAORV/qnVW5GAaUuZ0VdInswgDc5zIANjB//Z;" vertex="1" parent="1">
          <mxGeometry x="528.5" y="487" width="103" height="103" as="geometry" />
        </mxCell>
        <mxCell id="I_HEO3aWKhT4bS8Z9P9y-25" value="" style="shape=image;verticalLabelPosition=bottom;labelBackgroundColor=default;verticalAlign=top;aspect=fixed;imageAspect=0;image=data:image/png,iVBORw0KGgoAAAANSUhEUgAAASMAAACtCAMAAADMM+kDAAAAq1BMVEX7+/v///9DhfX///tTWWBTWV91eH27vb+jpqn///pQVl1UWGH+/fvNztBsb3eHio7g4eNLT1arrLC6u73BwsXY2Nt0d31dmPY+gvVXXWMzfvSOkJXp6erx8fJ/g4dgZGri6vm0zPdQkfaHrfbv8/qXmJvP0dLM3Ph5p/ZOj/ZvovmYu/alw/jX5Pllm/fr8fqSt/fG1/rU4PquyfcsevVNivWYuPZ1ovVBR1D11H+wAAAIEUlEQVR4nO2aiXabOBSGUVhqC5nN8SIMyHGMs9RpliZt3//J5kqAjZeknjnTmDnzf6enCSCE9HM3iVgWAAAAAAAAAAAAAAAAAAAAAAAAAAAAAAAAAAAAAAAAAACA/zDi3APoOsK2lpYNmT7Avrm9u7u7f7bPPZDuIr7eTTRvX/vnHkpXsdeLyWQxWSxurYfluQfTTcScJPp28/iw7s/vrhCTjiHW5GbLviX6D2RK0OgY9s/JZK2jtXgkgzr3aLoJabR4rsyHDAp10jHs68nkh7Gjh8Xk/tyj6SbiinLaCxWQggzqCSXSccjFFk/Ptv20uJvD1Y4iHnQJebcUL2/fYUbv0H/4tlgsKLdd9YUtbBsLtyMIcbN+WpM06+tvi8nPp2esb4+gredRiGk61aSv13N43QFi+fPOttfTi4pp+oRKaY/+DcnyIh7Ti2kt0/TuESK16T+npMqtbd9OJ4uL1Mg0vUAh0EK8pFqV17nQccmery8qY3o898C6xNTYzVV9ZAvxZESbwJAa7GvSaPrWTmX2lRYpXWNjskLMjR67Ibq/1ien5xpT17CfyIzSq72CyP6mz65RJlW8kcUs9sUQD9qQJnA2jXG16WHksRc61eEjgMaE5/ThIIX1v5Kzvd4gtVn605G2o0N7EUY7fCjR2D90dXREo+f0SCj/f2J/hUa/w/6utThcm5lNgPQZvkaIG63R4S6tKZBesa7ViKX2tclBffT4qpdskMjQv9cGs/+HNdUi7hrhyCCejcXsRu3+cwpXayF0RT3d+YzdfzHbJfeQqMZ+eDWbs/Pma4gw9ePRbPe/xf5RSfI019uQtnieVPuSKI5a9G/T6mvI2+319f202tB+/QGJ2ojrtP4cMm0+jECiffrf0+bbmiG9wF/ZHmA/Xr+mG4XSH0tIdIiwl99/vqXpKwWlK8uGREcRQljLx/lS4C8iPkZAHwDAP4Yx9q+2axr/nfZV27/1hM+EXQ6jU4bGsuGXk/tkg7IoysGpc2ajAY2BbjppJJ8PC+LhSRoNYnVql7nHHU7/gsz0/Fv7YGHcY1YUy6CjGnn+l9M04sGpfSrpl4NBT0qV6zuT8PLjJ7CZ02Msi52Tn/C5/PsascRRkQ5HmeIh01bCk99p5PeMr2XdrK4ONdqbT33Y0qhxHbbTZDM95jmVJmwwi/SP0HlfI6E7qzRq+yRjXVJrTyMaZpZvB8tYHuVV0tlqFEUUZ+hkfcXKo4ymSrfV94zd2rdMP8xoxHY0aH6ju0YZHWhfa11n5hHdiU07Ggl26cVx7JbVfJmVKDpUQzKSRiNmebFLrjQY0xXZy+lK8qtkCee/BvXEQxluzSAfF0oFnlfoW8K6xcwzbdkXFfNYfql9rRwbbVkWck6nk32LPhttjZhFowsKz/XlSL9XCih8XATcH+ei1ohZhaPoHZd1Q0W2lPBeyV0ZNxoNuDNrzEBkv7hUkscuY5d8XLfwuFEj5K6iTuKyp+2I4pbOsNTMl/qpTpB3RKQdjUJHDbQDhL4kd8qV9MhirFHgjGs7Elbh0iU25NI09PSVRAZuGGmPq7vpcSlnK6sypigrZC+LqKNLd0cjVjraVvTTlKw0opGwEXdCrfAqkF1Jcy2N2IrLqCp4Q4d8o+eMq1CUK3rDWiPGCkc3ySWvnMVS9Esi/Rk13PoXu1Suw1Uvbzoz8WhPIxZx/7JuIOXGjljgzJqnfhDrP5W2RpsEJDLpZpZyR/WcLkktY0fG0SiO8KJabZBBhaSR3PMKspmQO37lUU23+xqVstg8baMRW/mqTpH01FOr1j9M29cUbxYDehYRV82FnPN8xQP9wjOTq2WRVJRUGydOcfC+KSGSdNp53tUoaNKfRdbZ+BoZ72zTmcNHnTCktkacb87O/GTAvU2gIvVII5LIzIsV0o9ruLQSNzwyFcHyggzsXY0syUfbAGY0cofaMTdLIxb4g65ppK2lOTvjw1VLI8mzlaukojBLbkXvfRhtYPsabcqc3HUGrK2R12jkVho1Dd/V6DeLmE+ibUfBdtSBu8o24YBl3MlJI4pFgQ4irPQTtmVPIzYYbjxWT3irkVOvWU2VSY9orISFfsvXyqYz4XbP17axgI20vWwCBl0o2MDURZFD06b4XcvHsmhfI5bEvIm6gburURXgRO64JmY3JWVe5/6drklrR/7ZuZ+K0aiGzGVIGZziraIXS9lL6vKIco0OnnUNmTg+he2A3rZZj3jxcN+OciqOquw98rUh0Ny1Arry4WazhNTRGo14FW4EHcvG1yhx1IbE8sCsUDoA+UNvVEOZ3JmN8myofE9fCl2ZUG3Yc3jJNuu1se/p+bnFKs8HgS6G931tWNfZA2WyO+tJlVl6dUs1qV4LJlxpC9VZkqRieclVqz6iKr3UraKxLuLPIckBzKMUXaGo3HH1UonzohpdWV8xOxf1ei3inILRqr5pbNYiu7lf19mOVyinmiSZp3QU184WSxnOVFzOqsrJc5xgFsp4Vsfsai1CEstiNuam1u8ErAgaKOtQVVOMvXITuqNeMS4SUxOtlFedGwZ6e8gahtRQb8eyoZrtToaNipj7XPaqVSkb0fpXRxl2KX0ekz/PZFVdJqR0TPG/V9mRNJGRRXQ3N9b0iTp8SCtBbQ93L9YRmG3O7TY83IslB1qtovYOS7OREA1G9L9ouqyPmz3/TfPRKurMqv/P8c4m9v7pE5sBAAAAAAAAAAAAAAAAAAAAAAAAAAAAAAAAAAAAAAAAAAAAAAAAAADn4y8jC4+eVMu3AQAAAABJRU5ErkJggg==;" vertex="1" parent="1">
          <mxGeometry x="463.5" y="226.94" width="233" height="138.52" as="geometry" />
        </mxCell>
        <mxCell id="I_HEO3aWKhT4bS8Z9P9y-27" value="&lt;font style=&quot;font-size: 20px;&quot;&gt;Infrastructure&lt;/font&gt;" style="text;html=1;align=center;verticalAlign=middle;whiteSpace=wrap;rounded=0;" vertex="1" parent="1">
          <mxGeometry y="526.56" width="130" height="30" as="geometry" />
        </mxCell>
      </root>
    </mxGraphModel>
  </diagram>
</mxfile>
